<?xml version="1.0" encoding="UTF-8"?>
<svg data-bbox="50.72 36.6 383.64 407.63" viewBox="0 0 500 500" xmlns="http://www.w3.org/2000/svg" data-type="color">
    <g>
        <path d="M204.16 444.22v-78.65l140.99-140.03c3.84-3.84 8.07-6.71 12.71-8.63 4.64-1.92 9.51-2.88 14.63-2.88s9.99.96 14.63 2.88 8.87 4.8 12.71 8.63l23.5 23.98c3.52 3.84 6.23 8.07 8.15 12.71 1.92 4.64 2.88 9.35 2.88 14.15s-1.04 9.51-3.12 14.15c-2.08 4.64-4.88 8.87-8.39 12.71L282.82 444.23h-78.65Zm190.39-166.89-23.98-23.5 23.98 23.5ZM242.53 405.85h23.98l77.69-77.69-11.99-11.99-11.99-11.99-77.69 77.69v23.98Zm89.68-89.68-11.99-11.99 11.99 11.99 11.99 11.99-11.99-11.99ZM218.55 199.64l-26.86-27.34 35.01-35.01h-64.26c-2.88 8.31-7.35 15.51-13.43 21.58-6.07 6.07-13.27 10.55-21.58 13.43v160.18c11.19 4.16 20.38 11.11 27.58 20.86 7.19 9.75 10.79 20.86 10.79 33.33 0 15.99-5.59 29.57-16.78 40.76-11.19 11.19-24.78 16.78-40.76 16.78s-29.57-5.59-40.76-16.78c-11.19-11.19-16.78-24.78-16.78-40.76 0-12.47 3.6-23.5 10.79-33.09 7.19-9.59 16.39-16.47 27.58-20.62V172.31c-11.19-4.16-20.38-11.11-27.58-20.86-7.19-9.75-10.79-20.86-10.79-33.33 0-15.99 5.59-29.57 16.78-40.76 11.19-11.19 24.78-16.78 40.76-16.78 12.47 0 23.58 3.6 33.33 10.79 9.75 7.19 16.7 16.39 20.86 27.58h64.26L191.7 63.94l26.86-27.34 81.53 81.53-81.53 81.53ZM376.81 60.57c15.99 0 29.57 5.59 40.76 16.78s16.78 24.78 16.78 40.76-5.59 29.57-16.78 40.76c-11.19 11.19-24.78 16.78-40.76 16.78s-29.57-5.59-40.76-16.78c-11.19-11.19-16.78-24.78-16.78-40.76s5.59-29.57 16.78-40.76 24.78-16.78 40.76-16.78ZM108.25 405.86c5.44 0 9.99-1.84 13.67-5.52 3.68-3.68 5.52-8.23 5.52-13.67s-1.84-9.99-5.52-13.67c-3.68-3.68-8.23-5.52-13.67-5.52s-9.99 1.84-13.67 5.52-5.52 8.23-5.52 13.67 1.84 9.99 5.52 13.67c3.68 3.68 8.23 5.52 13.67 5.52Zm0-268.56c5.44 0 9.99-1.84 13.67-5.52s5.52-8.23 5.52-13.67-1.84-9.99-5.52-13.67-8.23-5.52-13.67-5.52-9.99 1.84-13.67 5.52c-3.68 3.68-5.52 8.23-5.52 13.67s1.84 9.99 5.52 13.67c3.68 3.68 8.23 5.52 13.67 5.52Zm268.56 0c5.44 0 9.99-1.84 13.67-5.52 3.68-3.68 5.52-8.23 5.52-13.67s-1.84-9.99-5.52-13.67c-3.68-3.68-8.23-5.52-13.67-5.52s-9.99 1.84-13.67 5.52c-3.68 3.68-5.52 8.23-5.52 13.67s1.84 9.99 5.52 13.67c3.68 3.68 8.23 5.52 13.67 5.52Z" fill="#ffffff" data-color="1"/>
    </g>
</svg>
