<?xml version="1.0" encoding="UTF-8"?>
<svg data-bbox="51.92 77.35 422.03 345.29" viewBox="0 0 500 500" xmlns="http://www.w3.org/2000/svg" data-type="color">
    <g>
        <path d="M71.11 422.64c-5.44 0-9.99-1.84-13.67-5.52-3.68-3.68-5.52-8.23-5.52-13.67s1.84-9.99 5.52-13.67c3.68-3.68 8.23-5.52 13.67-5.52h383.65c5.44 0 9.99 1.84 13.67 5.52s5.52 8.23 5.52 13.67-1.84 9.99-5.52 13.67c-3.68 3.68-8.23 5.52-13.67 5.52H71.11Zm38.37-57.55c-10.55 0-19.58-3.76-27.1-11.27-7.51-7.51-11.27-16.55-11.27-27.1v-211c0-10.55 3.76-19.58 11.27-27.1 7.51-7.51 16.55-11.27 27.1-11.27H416.4c10.55 0 19.58 3.76 27.1 11.27s11.27 16.55 11.27 27.1v211.01c0 10.55-3.76 19.58-11.27 27.1-7.51 7.51-16.55 11.27-27.1 11.27H109.48Zm0-38.37H416.4v-211H109.48v211.01Zm0 0v-211 211.01Z" fill="#ffffff" data-color="1"/>
        <path fill="#ffffff" d="M372.06 237.74h-190a4.13 4.13 0 0 1-4.13-4.13v-24.76a4.13 4.13 0 0 1 4.13-4.13h190a4.13 4.13 0 0 1 4.13 4.13v24.76a4.13 4.13 0 0 1-4.13 4.13z" data-color="1"/>
        <path fill="#ffffff" d="M272.93 188.18h-90.87a4.13 4.13 0 0 1-4.13-4.13v-24.76a4.13 4.13 0 0 1 4.13-4.13h90.87a4.13 4.13 0 0 1 4.13 4.13v24.76a4.13 4.13 0 0 1-4.13 4.13z" data-color="1"/>
        <path fill="#ffffff" d="M272.92 287.3h-90.87a4.13 4.13 0 0 1-4.13-4.13v-24.76a4.13 4.13 0 0 1 4.13-4.13h90.87a4.13 4.13 0 0 1 4.13 4.13v24.76a4.13 4.13 0 0 1-4.13 4.13z" data-color="1"/>
    </g>
</svg>
