<?xml version="1.0" encoding="UTF-8"?>
<svg data-bbox="77.35 19.8 345.28 460.39" viewBox="0 0 500 500" xmlns="http://www.w3.org/2000/svg" data-type="color">
    <g>
        <path d="M250 96.54c-10.55 0-19.58-3.76-27.1-11.27-7.51-7.51-11.27-16.55-11.27-27.1s3.76-19.58 11.27-27.1c7.51-7.51 16.55-11.27 27.1-11.27s19.58 3.76 27.1 11.27c7.51 7.51 11.27 16.55 11.27 27.1s-3.76 19.58-11.27 27.1-16.55 11.27-27.1 11.27Zm-57.55 287.74V154.09c-19.18-1.6-38.69-4-58.51-7.19-19.82-3.2-38.69-7.19-56.59-11.99l9.59-38.37c24.94 6.71 51.47 11.59 79.61 14.63 28.13 3.04 55.95 4.56 83.44 4.56s55.31-1.52 83.44-4.56c28.13-3.04 54.67-7.91 79.61-14.63l9.59 38.37c-17.9 4.8-36.77 8.79-56.59 11.99-19.82 3.2-39.32 5.59-58.51 7.19v230.19h-38.37v-115.1h-38.37v115.1h-38.37Zm-19.18 95.91c-5.44 0-9.99-1.84-13.67-5.52-3.68-3.68-5.52-8.23-5.52-13.67s1.84-9.99 5.52-13.67c3.68-3.68 8.23-5.52 13.67-5.52s9.99 1.84 13.67 5.52c3.68 3.68 5.52 8.23 5.52 13.67s-1.84 9.99-5.52 13.67c-3.68 3.68-8.23 5.52-13.67 5.52Zm76.73 0c-5.44 0-9.99-1.84-13.67-5.52-3.68-3.68-5.52-8.23-5.52-13.67s1.84-9.99 5.52-13.67c3.68-3.68 8.23-5.52 13.67-5.52s9.99 1.84 13.67 5.52c3.68 3.68 5.52 8.23 5.52 13.67s-1.84 9.99-5.52 13.67c-3.68 3.68-8.23 5.52-13.67 5.52Zm76.73 0c-5.44 0-9.99-1.84-13.67-5.52-3.68-3.68-5.52-8.23-5.52-13.67s1.84-9.99 5.52-13.67c3.68-3.68 8.23-5.52 13.67-5.52s9.99 1.84 13.67 5.52c3.68 3.68 5.52 8.23 5.52 13.67s-1.84 9.99-5.52 13.67c-3.68 3.68-8.23 5.52-13.67 5.52Z" fill="#ffffff" data-color="1"/>
    </g>
</svg>
